<?xml version="1.0" encoding="UTF-8" standalone="no"?><svg xmlns="http://www.w3.org/2000/svg" xmlns:xlink="http://www.w3.org/1999/xlink" contentStyleType="text/css" height="635px" preserveAspectRatio="none" style="width:1710px;height:635px;background:#FFFFFF;" version="1.1" viewBox="0 0 1710 635" width="1710px" zoomAndPan="magnify"><defs/><g><rect fill="none" height="26.2969" id="_title" style="stroke:none;stroke-width:1.0;" width="91" x="802.5" y="5"/><text fill="#000000" font-family="sans-serif" font-size="14" font-weight="bold" lengthAdjust="spacing" textLength="81" x="807.5" y="22.9951">2048-Rust</text><!--MD5=[5880d1a92aa52ab2ecce262bfcbf7bf1]
cluster business_layer--><g id="cluster_business_layer"><path d="M462.5,116.2969 L578.5,116.2969 A3.75,3.75 0 0 1 581,118.7969 L588,138.5938 L1700.5,138.5938 A2.5,2.5 0 0 1 1703,141.0938 L1703,564.7969 A2.5,2.5 0 0 1 1700.5,567.2969 L462.5,567.2969 A2.5,2.5 0 0 1 460,564.7969 L460,118.7969 A2.5,2.5 0 0 1 462.5,116.2969 " fill="none" style="stroke:#000000;stroke-width:1.5;"/><line style="stroke:#000000;stroke-width:1.5;" x1="460" x2="588" y1="138.5938" y2="138.5938"/><text fill="#000000" font-family="sans-serif" font-size="14" font-weight="bold" lengthAdjust="spacing" textLength="115" x="464" y="131.292">Business layer</text></g><!--MD5=[3f9e515f2676bb1a608caf5fe77684a2]
cluster data_layer--><g id="cluster_data_layer"><path d="M199.5,116.2969 L279.5,116.2969 A3.75,3.75 0 0 1 282,118.7969 L289,138.5938 L417.5,138.5938 A2.5,2.5 0 0 1 420,141.0938 L420,244.7969 A2.5,2.5 0 0 1 417.5,247.2969 L199.5,247.2969 A2.5,2.5 0 0 1 197,244.7969 L197,118.7969 A2.5,2.5 0 0 1 199.5,116.2969 " fill="none" style="stroke:#000000;stroke-width:1.5;"/><line style="stroke:#000000;stroke-width:1.5;" x1="197" x2="289" y1="138.5938" y2="138.5938"/><text fill="#000000" font-family="sans-serif" font-size="14" font-weight="bold" lengthAdjust="spacing" textLength="79" x="201" y="131.292">Data layer</text></g><!--MD5=[fd734cb28ea71a79eecaa680fe16f45f]
cluster data_models--><g id="cluster_data_models"><path d="M8.5,287.2969 L106.5,287.2969 A3.75,3.75 0 0 1 109,289.7969 L116,309.5938 L313.5,309.5938 A2.5,2.5 0 0 1 316,312.0938 L316,540.2969 A2.5,2.5 0 0 1 313.5,542.7969 L8.5,542.7969 A2.5,2.5 0 0 1 6,540.2969 L6,289.7969 A2.5,2.5 0 0 1 8.5,287.2969 " fill="none" style="stroke:#000000;stroke-width:1.5;"/><line style="stroke:#000000;stroke-width:1.5;" x1="6" x2="116" y1="309.5938" y2="309.5938"/><text fill="#000000" font-family="sans-serif" font-size="14" font-weight="bold" lengthAdjust="spacing" textLength="97" x="10" y="302.292">Data models</text></g><!--MD5=[308de564e57c8d51c168255b0b03c096]
class player--><g id="elem_player"><rect codeLine="7" fill="#F1F1F1" height="64.2969" id="player" rx="2.5" ry="2.5" style="stroke:#181818;stroke-width:0.5;" width="532" x="531" y="159.2969"/><ellipse cx="767.25" cy="175.2969" fill="#ADD1B2" rx="11" ry="11" style="stroke:#181818;stroke-width:1.0;"/><path d="M770.2188,180.9375 Q769.6406,181.2344 769,181.375 Q768.3594,181.5313 767.6563,181.5313 Q765.1563,181.5313 763.8281,179.8906 Q762.5156,178.2344 762.5156,175.1094 Q762.5156,171.9844 763.8281,170.3281 Q765.1563,168.6719 767.6563,168.6719 Q768.3594,168.6719 769,168.8281 Q769.6563,168.9844 770.2188,169.2813 L770.2188,172 Q769.5938,171.4219 769,171.1563 Q768.4063,170.875 767.7813,170.875 Q766.4375,170.875 765.75,171.9531 Q765.0625,173.0156 765.0625,175.1094 Q765.0625,177.2031 765.75,178.2813 Q766.4375,179.3438 767.7813,179.3438 Q768.4063,179.3438 769,179.0781 Q769.5938,178.7969 770.2188,178.2188 L770.2188,180.9375 Z " fill="#000000"/><text fill="#000000" font-family="sans-serif" font-size="14" lengthAdjust="spacing" textLength="51" x="787.75" y="180.1436">Player()</text><line style="stroke:#181818;stroke-width:0.5;" x1="532" x2="1062" y1="191.2969" y2="191.2969"/><line style="stroke:#181818;stroke-width:0.5;" x1="532" x2="1062" y1="199.2969" y2="199.2969"/><ellipse cx="542" cy="212.9453" fill="#84BE84" rx="3" ry="3" style="stroke:#038048;stroke-width:1.0;"/><text fill="#000000" font-family="sans-serif" font-size="14" lengthAdjust="spacing" textLength="506" x="551" y="216.292">train(games_per_training: u64, minmax_depth: u64, threads: u8) -&gt; None</text></g><!--MD5=[d0497865c591b752d9f81c3ace406775]
class game--><g id="elem_game"><rect codeLine="11" fill="#F1F1F1" height="64.2969" id="game" rx="2.5" ry="2.5" style="stroke:#181818;stroke-width:0.5;" width="478" x="586" y="322.2969"/><ellipse cx="795.25" cy="338.2969" fill="#ADD1B2" rx="11" ry="11" style="stroke:#181818;stroke-width:1.0;"/><path d="M798.2188,343.9375 Q797.6406,344.2344 797,344.375 Q796.3594,344.5313 795.6563,344.5313 Q793.1563,344.5313 791.8281,342.8906 Q790.5156,341.2344 790.5156,338.1094 Q790.5156,334.9844 791.8281,333.3281 Q793.1563,331.6719 795.6563,331.6719 Q796.3594,331.6719 797,331.8281 Q797.6563,331.9844 798.2188,332.2813 L798.2188,335 Q797.5938,334.4219 797,334.1563 Q796.4063,333.875 795.7813,333.875 Q794.4375,333.875 793.75,334.9531 Q793.0625,336.0156 793.0625,338.1094 Q793.0625,340.2031 793.75,341.2813 Q794.4375,342.3438 795.7813,342.3438 Q796.4063,342.3438 797,342.0781 Q797.5938,341.7969 798.2188,341.2188 L798.2188,343.9375 Z " fill="#000000"/><text fill="#000000" font-family="sans-serif" font-size="14" lengthAdjust="spacing" textLength="51" x="815.75" y="343.1436">Game()</text><line style="stroke:#181818;stroke-width:0.5;" x1="587" x2="1063" y1="354.2969" y2="354.2969"/><line style="stroke:#181818;stroke-width:0.5;" x1="587" x2="1063" y1="362.2969" y2="362.2969"/><ellipse cx="597" cy="375.9453" fill="#84BE84" rx="3" ry="3" style="stroke:#038048;stroke-width:1.0;"/><text fill="#000000" font-family="sans-serif" font-size="14" lengthAdjust="spacing" textLength="452" x="606" y="379.292">play_games(total_games: u64, threads: u8) -&gt; Vec&lt;Game_data&gt;</text></g><!--MD5=[9909e6092d9f3f42339c1b04868f0456]
class game_algorithm--><g id="elem_game_algorithm"><rect codeLine="14" fill="#F1F1F1" height="64.2969" id="game_algorithm" rx="2.5" ry="2.5" style="stroke:#181818;stroke-width:0.5;" width="665" x="492.5" y="462.7969"/><ellipse cx="764.75" cy="478.7969" fill="#ADD1B2" rx="11" ry="11" style="stroke:#181818;stroke-width:1.0;"/><path d="M767.7188,484.4375 Q767.1406,484.7344 766.5,484.875 Q765.8594,485.0313 765.1563,485.0313 Q762.6563,485.0313 761.3281,483.3906 Q760.0156,481.7344 760.0156,478.6094 Q760.0156,475.4844 761.3281,473.8281 Q762.6563,472.1719 765.1563,472.1719 Q765.8594,472.1719 766.5,472.3281 Q767.1563,472.4844 767.7188,472.7813 L767.7188,475.5 Q767.0938,474.9219 766.5,474.6563 Q765.9063,474.375 765.2813,474.375 Q763.9375,474.375 763.25,475.4531 Q762.5625,476.5156 762.5625,478.6094 Q762.5625,480.7031 763.25,481.7813 Q763.9375,482.8438 765.2813,482.8438 Q765.9063,482.8438 766.5,482.5781 Q767.0938,482.2969 767.7188,481.7188 L767.7188,484.4375 Z " fill="#000000"/><text fill="#000000" font-family="sans-serif" font-size="14" lengthAdjust="spacing" textLength="112" x="785.25" y="483.6436">Game_algorithm</text><line style="stroke:#181818;stroke-width:0.5;" x1="493.5" x2="1156.5" y1="494.7969" y2="494.7969"/><line style="stroke:#181818;stroke-width:0.5;" x1="493.5" x2="1156.5" y1="502.7969" y2="502.7969"/><ellipse cx="503.5" cy="516.4453" fill="#84BE84" rx="3" ry="3" style="stroke:#038048;stroke-width:1.0;"/><text fill="#000000" font-family="sans-serif" font-size="14" lengthAdjust="spacing" textLength="639" x="512.5" y="519.792">determine_best_movement(board: u64, possible_movements: Vec&lt;Direction&gt;) -&gt; Direction</text></g><!--MD5=[400f0600dc490cab46af2e6886caefc3]
class board--><g id="elem_board"><rect codeLine="17" fill="#F1F1F1" height="96.8906" id="board" rx="2.5" ry="2.5" style="stroke:#181818;stroke-width:0.5;" width="487" x="1192.5" y="446.2969"/><ellipse cx="1406.25" cy="462.2969" fill="#ADD1B2" rx="11" ry="11" style="stroke:#181818;stroke-width:1.0;"/><path d="M1409.2188,467.9375 Q1408.6406,468.2344 1408,468.375 Q1407.3594,468.5313 1406.6563,468.5313 Q1404.1563,468.5313 1402.8281,466.8906 Q1401.5156,465.2344 1401.5156,462.1094 Q1401.5156,458.9844 1402.8281,457.3281 Q1404.1563,455.6719 1406.6563,455.6719 Q1407.3594,455.6719 1408,455.8281 Q1408.6563,455.9844 1409.2188,456.2813 L1409.2188,459 Q1408.5938,458.4219 1408,458.1563 Q1407.4063,457.875 1406.7813,457.875 Q1405.4375,457.875 1404.75,458.9531 Q1404.0625,460.0156 1404.0625,462.1094 Q1404.0625,464.2031 1404.75,465.2813 Q1405.4375,466.3438 1406.7813,466.3438 Q1407.4063,466.3438 1408,466.0781 Q1408.5938,465.7969 1409.2188,465.2188 L1409.2188,467.9375 Z " fill="#000000"/><text fill="#000000" font-family="sans-serif" font-size="14" lengthAdjust="spacing" textLength="51" x="1426.75" y="467.1436">Board()</text><line style="stroke:#181818;stroke-width:0.5;" x1="1193.5" x2="1678.5" y1="478.2969" y2="478.2969"/><line style="stroke:#181818;stroke-width:0.5;" x1="1193.5" x2="1678.5" y1="486.2969" y2="486.2969"/><ellipse cx="1203.5" cy="499.9453" fill="#84BE84" rx="3" ry="3" style="stroke:#038048;stroke-width:1.0;"/><text fill="#000000" font-family="sans-serif" font-size="14" lengthAdjust="spacing" textLength="91" x="1212.5" y="503.292">new() -&gt; u64</text><ellipse cx="1203.5" cy="516.2422" fill="#84BE84" rx="3" ry="3" style="stroke:#038048;stroke-width:1.0;"/><text fill="#000000" font-family="sans-serif" font-size="14" lengthAdjust="spacing" textLength="461" x="1212.5" y="519.5889">perform_movement(board: u64, direction: Direction) -&gt; board: u64</text><ellipse cx="1203.5" cy="532.5391" fill="#84BE84" rx="3" ry="3" style="stroke:#038048;stroke-width:1.0;"/><text fill="#000000" font-family="sans-serif" font-size="14" lengthAdjust="spacing" textLength="400" x="1212.5" y="535.8857">get_possible_movements(board: u64) -&gt; Vec&lt;Direction&gt;</text></g><!--MD5=[9ff7b95e39509373e9a56ec636599019]
class memory_handler--><g id="elem_memory_handler"><rect codeLine="25" fill="#F1F1F1" height="64.2969" id="memory_handler" rx="2.5" ry="2.5" style="stroke:#181818;stroke-width:0.5;" width="156" x="240" y="159.2969"/><ellipse cx="255" cy="175.2969" fill="#ADD1B2" rx="11" ry="11" style="stroke:#181818;stroke-width:1.0;"/><path d="M257.9688,180.9375 Q257.3906,181.2344 256.75,181.375 Q256.1094,181.5313 255.4063,181.5313 Q252.9063,181.5313 251.5781,179.8906 Q250.2656,178.2344 250.2656,175.1094 Q250.2656,171.9844 251.5781,170.3281 Q252.9063,168.6719 255.4063,168.6719 Q256.1094,168.6719 256.75,168.8281 Q257.4063,168.9844 257.9688,169.2813 L257.9688,172 Q257.3438,171.4219 256.75,171.1563 Q256.1563,170.875 255.5313,170.875 Q254.1875,170.875 253.5,171.9531 Q252.8125,173.0156 252.8125,175.1094 Q252.8125,177.2031 253.5,178.2813 Q254.1875,179.3438 255.5313,179.3438 Q256.1563,179.3438 256.75,179.0781 Q257.3438,178.7969 257.9688,178.2188 L257.9688,180.9375 Z " fill="#000000"/><text fill="#000000" font-family="sans-serif" font-size="14" lengthAdjust="spacing" textLength="124" x="269" y="180.1436">Memory_handler()</text><line style="stroke:#181818;stroke-width:0.5;" x1="241" x2="395" y1="191.2969" y2="191.2969"/><text fill="#000000" font-family="sans-serif" font-size="14" lengthAdjust="spacing" textLength="7" x="246" y="208.292">?</text><line style="stroke:#181818;stroke-width:0.5;" x1="241" x2="395" y1="215.5938" y2="215.5938"/></g><!--MD5=[38bc700c107ecb3a5ccd2c68368073d3]
class move_data--><g id="elem_move_data"><rect codeLine="33" fill="#F1F1F1" height="48" id="move_data" rx="2.5" ry="2.5" style="stroke:#181818;stroke-width:0.5;" width="106" x="30" y="330.2969"/><ellipse cx="45" cy="346.2969" fill="#F1F1F1" rx="11" ry="11" style="stroke:#181818;stroke-width:1.0;"/><path d="M44.4844,346.8594 Q42.625,346.1563 41.9688,345.3906 Q41.3281,344.6094 41.3281,343.2969 Q41.3281,341.6094 42.4063,340.6406 Q43.4844,339.6719 45.3594,339.6719 Q46.2188,339.6719 47.0625,339.875 Q47.9219,340.0625 48.7656,340.4531 L48.7656,342.8438 Q47.9844,342.2813 47.1563,342 Q46.3438,341.7031 45.5469,341.7031 Q44.6719,341.7031 44.1875,342.0625 Q43.7188,342.4219 43.7188,343.0781 Q43.7188,343.5938 44.0625,343.9375 Q44.4063,344.2656 45.5,344.6719 L46.5625,345.0781 Q48.0469,345.625 48.75,346.5313 Q49.4688,347.4375 49.4688,348.8125 Q49.4688,350.6875 48.3594,351.6094 Q47.25,352.5313 45,352.5313 Q44.0781,352.5313 43.1563,352.3125 Q42.2344,352.0938 41.375,351.6719 L41.375,349.1406 Q42.3438,349.8281 43.2656,350.1719 Q44.1875,350.5156 45.0781,350.5156 Q45.9844,350.5156 46.4844,350.1094 Q46.9844,349.6875 46.9844,348.9531 Q46.9844,348.3906 46.6406,347.9844 Q46.3125,347.5625 45.6875,347.3125 L44.4844,346.8594 Z " fill="#000000"/><text fill="#000000" font-family="sans-serif" font-size="14" lengthAdjust="spacing" textLength="74" x="59" y="351.1436">Move_data</text><line style="stroke:#181818;stroke-width:0.5;" x1="31" x2="135" y1="362.2969" y2="362.2969"/><line style="stroke:#181818;stroke-width:0.5;" x1="31" x2="135" y1="370.2969" y2="370.2969"/></g><!--MD5=[e1ea5812fab0c848dc818432ecbe97c4]
class directions--><g id="elem_directions"><rect codeLine="34" fill="#F1F1F1" height="48" id="directions" rx="2.5" ry="2.5" style="stroke:#181818;stroke-width:0.5;" width="102" x="171" y="330.2969"/><ellipse cx="186" cy="346.2969" fill="#F1F1F1" rx="11" ry="11" style="stroke:#181818;stroke-width:1.0;"/><path d="M185.4844,346.8594 Q183.625,346.1563 182.9688,345.3906 Q182.3281,344.6094 182.3281,343.2969 Q182.3281,341.6094 183.4063,340.6406 Q184.4844,339.6719 186.3594,339.6719 Q187.2188,339.6719 188.0625,339.875 Q188.9219,340.0625 189.7656,340.4531 L189.7656,342.8438 Q188.9844,342.2813 188.1563,342 Q187.3438,341.7031 186.5469,341.7031 Q185.6719,341.7031 185.1875,342.0625 Q184.7188,342.4219 184.7188,343.0781 Q184.7188,343.5938 185.0625,343.9375 Q185.4063,344.2656 186.5,344.6719 L187.5625,345.0781 Q189.0469,345.625 189.75,346.5313 Q190.4688,347.4375 190.4688,348.8125 Q190.4688,350.6875 189.3594,351.6094 Q188.25,352.5313 186,352.5313 Q185.0781,352.5313 184.1563,352.3125 Q183.2344,352.0938 182.375,351.6719 L182.375,349.1406 Q183.3438,349.8281 184.2656,350.1719 Q185.1875,350.5156 186.0781,350.5156 Q186.9844,350.5156 187.4844,350.1094 Q187.9844,349.6875 187.9844,348.9531 Q187.9844,348.3906 187.6406,347.9844 Q187.3125,347.5625 186.6875,347.3125 L185.4844,346.8594 Z " fill="#000000"/><text fill="#000000" font-family="sans-serif" font-size="14" lengthAdjust="spacing" textLength="70" x="200" y="351.1436">Directions</text><line style="stroke:#181818;stroke-width:0.5;" x1="172" x2="272" y1="362.2969" y2="362.2969"/><line style="stroke:#181818;stroke-width:0.5;" x1="172" x2="272" y1="370.2969" y2="370.2969"/></g><!--MD5=[34fc78faf381a405846b4642b53079d1]
class game_data--><g id="elem_game_data"><rect codeLine="35" fill="#F1F1F1" height="48" id="game_data" rx="2.5" ry="2.5" style="stroke:#181818;stroke-width:0.5;" width="110" x="30" y="470.7969"/><ellipse cx="45" cy="486.7969" fill="#F1F1F1" rx="11" ry="11" style="stroke:#181818;stroke-width:1.0;"/><path d="M44.4844,487.3594 Q42.625,486.6563 41.9688,485.8906 Q41.3281,485.1094 41.3281,483.7969 Q41.3281,482.1094 42.4063,481.1406 Q43.4844,480.1719 45.3594,480.1719 Q46.2188,480.1719 47.0625,480.375 Q47.9219,480.5625 48.7656,480.9531 L48.7656,483.3438 Q47.9844,482.7813 47.1563,482.5 Q46.3438,482.2031 45.5469,482.2031 Q44.6719,482.2031 44.1875,482.5625 Q43.7188,482.9219 43.7188,483.5781 Q43.7188,484.0938 44.0625,484.4375 Q44.4063,484.7656 45.5,485.1719 L46.5625,485.5781 Q48.0469,486.125 48.75,487.0313 Q49.4688,487.9375 49.4688,489.3125 Q49.4688,491.1875 48.3594,492.1094 Q47.25,493.0313 45,493.0313 Q44.0781,493.0313 43.1563,492.8125 Q42.2344,492.5938 41.375,492.1719 L41.375,489.6406 Q42.3438,490.3281 43.2656,490.6719 Q44.1875,491.0156 45.0781,491.0156 Q45.9844,491.0156 46.4844,490.6094 Q46.9844,490.1875 46.9844,489.4531 Q46.9844,488.8906 46.6406,488.4844 Q46.3125,488.0625 45.6875,487.8125 L44.4844,487.3594 Z " fill="#000000"/><text fill="#000000" font-family="sans-serif" font-size="14" lengthAdjust="spacing" textLength="78" x="59" y="491.6436">Game_data</text><line style="stroke:#181818;stroke-width:0.5;" x1="31" x2="139" y1="502.7969" y2="502.7969"/><line style="stroke:#181818;stroke-width:0.5;" x1="31" x2="139" y1="510.7969" y2="510.7969"/></g><!--MD5=[4520fda4e10d4d791ce48fe025810cd4]
class main--><g id="elem_main"><rect codeLine="4" fill="#F1F1F1" height="48" id="main" rx="2.5" ry="2.5" style="stroke:#181818;stroke-width:0.5;" width="74" x="760" y="44.2969"/><ellipse cx="775" cy="60.2969" fill="#ADD1B2" rx="11" ry="11" style="stroke:#181818;stroke-width:1.0;"/><path d="M777.9688,65.9375 Q777.3906,66.2344 776.75,66.375 Q776.1094,66.5313 775.4063,66.5313 Q772.9063,66.5313 771.5781,64.8906 Q770.2656,63.2344 770.2656,60.1094 Q770.2656,56.9844 771.5781,55.3281 Q772.9063,53.6719 775.4063,53.6719 Q776.1094,53.6719 776.75,53.8281 Q777.4063,53.9844 777.9688,54.2813 L777.9688,57 Q777.3438,56.4219 776.75,56.1563 Q776.1563,55.875 775.5313,55.875 Q774.1875,55.875 773.5,56.9531 Q772.8125,58.0156 772.8125,60.1094 Q772.8125,62.2031 773.5,63.2813 Q774.1875,64.3438 775.5313,64.3438 Q776.1563,64.3438 776.75,64.0781 Q777.3438,63.7969 777.9688,63.2188 L777.9688,65.9375 Z " fill="#000000"/><text fill="#000000" font-family="sans-serif" font-size="14" lengthAdjust="spacing" textLength="42" x="789" y="65.1436">Main()</text><line style="stroke:#181818;stroke-width:0.5;" x1="761" x2="833" y1="76.2969" y2="76.2969"/><line style="stroke:#181818;stroke-width:0.5;" x1="761" x2="833" y1="84.2969" y2="84.2969"/></g><g id="elem_data_models_note"><path d="M111,603.2969 L111,628.4297 L519,628.4297 L519,613.2969 L509,603.2969 L111,603.2969 " fill="#FEFFDD" style="stroke:#181818;stroke-width:0.5;"/><path d="M509,603.2969 L509,613.2969 L519,613.2969 L509,603.2969 " fill="#FEFFDD" style="stroke:#181818;stroke-width:1.0;"/><text fill="#000000" font-family="sans-serif" font-size="13" lengthAdjust="spacing" textLength="387" x="117" y="620.3638">Data models are used all over the place, linking not provided</text></g><!--MD5=[35b27362fb7ac0ac55e44006b701dda9]
reverse link main to player--><g id="link_main_player"><path codeLine="38" d="M797,105.5169 C797,122.5769 797,142.7369 797,159.1069 " fill="none" id="main-backto-player" style="stroke:#181818;stroke-width:1.0;"/><polygon fill="none" points="797,92.3369,793,98.3369,797,104.3369,801,98.3369,797,92.3369" style="stroke:#181818;stroke-width:1.0;"/></g><!--MD5=[9a7076d4f408e8d21520070a71c023ad]
reverse link player to memory_handler--><g id="link_player_memory_handler"><path codeLine="39" d="M726.4,153.5769 C661.02,122.8269 560.46,86.0369 469.5,96.2969 C422.92,101.5569 378.58,133.6569 350.04,159.1169 " fill="none" id="player-backto-memory_handler" style="stroke:#181818;stroke-width:1.0;"/><polygon fill="none" points="738.19,159.2369,734.5142,153.0329,727.3738,154.0398,731.0495,160.2438,738.19,159.2369" style="stroke:#181818;stroke-width:1.0;"/></g><!--MD5=[0ff9d5210ce659eb2dc32ff094b50539]
link player to game--><g id="link_player_game"><path codeLine="40" d="M802.4,223.3369 C807.34,251.7569 814.62,293.5969 819.57,322.0769 " fill="none" id="player-game" style="stroke:#181818;stroke-width:1.0;"/></g><!--MD5=[319e92eb1e58126b226bd21f4903b532]
link game to game_algorithm--><g id="link_game_game_algorithm"><path codeLine="41" d="M825,386.3769 C825,409.0269 825,439.6069 825,462.3369 " fill="none" id="game-game_algorithm" style="stroke:#181818;stroke-width:1.0;"/></g><!--MD5=[83413cd32ef1a50ef7112f5816ad363d]
reverse link game to board--><g id="link_game_board"><path codeLine="42" d="M975.08,389.3169 C1050.76,406.4769 1143.8,427.5669 1226.42,446.2869 " fill="none" id="game-backto-board" style="stroke:#181818;stroke-width:1.0;"/><polygon fill="#181818" points="962.12,386.3769,967.0876,391.604,973.8233,389.0289,968.8557,383.8018,962.12,386.3769" style="stroke:#181818;stroke-width:1.0;"/></g><!--MD5=[338f9f7c0a2290398cb6d3dafd093fb9]
reverse link data_layer to data_models--><g id="link_data_layer_data_models"><path d="M212.5351,247.63 C212.5878,247.742 212.6409,247.8538 212.6944,247.9655 C212.908,248.412 213.127,248.8556 213.3515,249.2959 C214.2493,251.0574 215.2342,252.7675 216.3143,254.409 C218.4744,257.692 221.015,260.7006 224,263.2969 C245.96,282.3969 267.36,251.8269 289,271.2969 C292.3675,274.3269 295.198,277.8255 297.5721,281.6347 C298.1656,282.5871 298.7306,283.5588 299.2684,284.5475 C299.5372,285.0418 299.7993,285.5404 300.0547,286.0429 C300.1824,286.2942 300.3084,286.5464 300.4328,286.7996 C300.495,286.9262 300.5568,287.053 300.6182,287.1801 " fill="none" id="data_layer-backto-data_models" style="stroke:#181818;stroke-width:1.0;"/><polygon fill="#181818" points="212.5351,247.63,212.7519,257.4765,214.6659,252.1533,219.9891,254.0673,212.5351,247.63" style="stroke:#181818;stroke-width:1.0;"/></g><!--MD5=[b6bafa31c0ab0d6f4b8689ca1e7a77a4]
reverse link business_layer to data_models--><g id="link_business_layer_data_models"><path d="M459.9762,203.7966 C459.8599,203.9597 459.7424,204.1241 459.6239,204.2898 C458.6759,205.6159 457.6595,207.0285 456.5811,208.5156 C454.4242,211.4898 452.0194,214.7619 449.4175,218.2344 C439.01,232.1244 425.45,249.2219 412,263.2969 C391.215,285.0519 365.6975,307.1944 345.14,324.0731 C334.8613,332.5125 325.8225,339.6359 319.2353,344.737 C318.4119,345.3747 317.6268,345.9807 316.8824,346.5538 C316.6963,346.697 316.5127,346.8382 316.3317,346.9774 C316.2413,347.0469 316.1514,347.116 316.0622,347.1845 " fill="none" id="business_layer-backto-data_models" style="stroke:#181818;stroke-width:1.0;"/><polygon fill="#181818" points="459.9762,203.7966,451.492,208.7984,457.0715,207.8664,458.0035,213.4459,459.9762,203.7966" style="stroke:#181818;stroke-width:1.0;"/></g><!--MD5=[ca7aa8381098b03202228eb8f4b97ceb]
link data_models to data_models_note--><g id="link_data_models_data_models_note"><path codeLine="45" d="M313.0892,543.8097 C313.7719,569.115 314.3525,590.6394 314.69,603.1469 " fill="none" id="data_models-data_models_note" style="stroke:#181818;stroke-width:1.0;stroke-dasharray:7.0,7.0;"/></g><!--MD5=[96e1902cf9dc1172d4666f54d04a2d7b]
@startuml 2048-rust

title 2048-Rust

class main as "Main()"

package business_layer as "Business layer"{
    class player as "Player()" {
        + train(games_per_training: u64, minmax_depth: u64, threads: u8) -> None
    }

    class game as "Game()" {
        + play_games(total_games: u64, threads: u8) -> Vec<Game_data>
    }
    class game_algorithm as "Game_algorithm" {
        + determine_best_movement(board: u64, possible_movements: Vec<Direction>) -> Direction
    }
    class board as "Board()" {
        + new() -> u64
        + perform_movement(board: u64, direction: Direction) -> board: u64
        + get_possible_movements(board: u64) -> Vec<Direction>
    }
}

package data_layer as "Data layer" {
    class memory_handler as "Memory_handler()" {
        ?
    }
}


note "Data models are used all over the place, linking not provided" as data_models_note
package data_models as "Data models" {
    struct move_data as "Move_data"
    struct directions as "Directions"
    struct game_data as "Game_data"
}

main o- - player
player o- memory_handler
player O- - game
game O- - game_algorithm
game *- - board
data_layer <- - data_models
business_layer <- - data_models 
data_models ... data_models_note
@enduml

PlantUML version 1.2022.7(Mon Aug 22 19:01:30 CEST 2022)
(GPL source distribution)
Java Runtime: OpenJDK Runtime Environment
JVM: OpenJDK 64-Bit Server VM
Default Encoding: UTF-8
Language: en
Country: US
--></g></svg>